# xmcd
#
# Track frame offsets: 
#        150
#        22595
#        43422
#        71220
#        95792
#        117765
#        133785
#        153678
#        176548
#        196488
#        222648
#
# Disc length: 3208 seconds
#
# Revision: 0
# Processed by: cddbd v1.5.2PL0 Copyright (c) Steve Scherf et al.
# Submitted via: ExactAudioCopy v1.0b3
#
DISCID=a80c860b
DTITLE=Tuan Vu, Nhu Mai, Elvis Phuong - 10 Tinh Khuc Song Ca
DYEAR=1991
DGENRE=
TTITLE0=Tuan Vu, Nhu Mai - Neu xa nhau
TTITLE1=Nhu Mai, Elvis Phuong - Va toi cung yeu em
TTITLE2=Tuan Vu, Nhu Mai - Khi nguoi yeu toi khoc
TTITLE3=Nhu Mai, Elvis Phuong - Thoi
TTITLE4=Tuan Vu, Nhu Mai - Giong ca di vang
TTITLE5=Tuan Vu, Nhu Mai - Co hoa (Sau tuong tu)
TTITLE6=Nhu Mai, Elvis Phuong - Tinh bo vo
TTITLE7=Tuan Vu, Nhu Mai - Dinh menh
TTITLE8=Nhu Mai, Elvis Phuong - Thoang may bay
TTITLE9=Tuan Vu, Nhu Mai - Lau dai tinh ai
TTITLE10=hoa tau - Nguoi yeu co don
EXTD=
EXTT0=
EXTT1=
EXTT2=
EXTT3=
EXTT4=
EXTT5=
EXTT6=
EXTT7=
EXTT8=
EXTT9=
EXTT10=
PLAYORDER=
